<svg width="960" height="960" version="1.1" viewBox="0 0 960 960" xmlns="http://www.w3.org/2000/svg">
  <path d="m239.87 12.113c-2.1352 0.06465-4.2511 0.47226-6.2656 1.209l-154.38 56.457c-7.886 2.8839-13.133 10.386-13.133 18.783v198.11c2e-4 6.066 2.7538 11.806 7.4863 15.602 4.7327 3.796 10.933 5.2369 16.855 3.9199l7.9707-1.7715v351.16l-12.521-2.1484c-5.8107-0.996-11.764 0.61992-16.271 4.4199-4.5073 3.8-7.1093 9.396-7.1094 15.291v193.49c2e-4 8.118 4.9066 15.431 12.418 18.508l152.84 62.615c2.906 1.191 6.0526 1.6817 9.1836 1.4297l375.04-30.143a218.75 218.75 0 0 1-33.578-47.379v9.9453l-147.85 11.885v-163.68l127.89-6.832a218.75 218.75 0 0 1 5.5098-20.324l-42.74 2.2832c6e-3 -0.04 0.01353-0.07914 0.01953-0.11914 0.618-3.976 1.4996-9.7537 2.5566-16.971 2.114-14.432 4.933-34.64 7.752-57.758 0.16899-1.387 0.33881-2.7863 0.50781-4.1953 9.918 18.83 14.497 37.597 16.133 46.326 0.914 4.88 5.2734 8.3504 10.234 8.1504l14.377-0.58008a218.75 218.75 0 0 1 0-0.00195 218.75 218.75 0 0 1 10.582-20.443l-17.375 0.70117c-2.903-11.955-8.5391-30.016-18.662-47.869l20.988-0.70117c4.028-0.134 7.4187-2.6351 8.8867-6.1211 14.302-20.592 19.078-43.044 18.811-62.637-0.17-12.51-2.4031-24.165-5.7461-33.732h42.869c3.355 7.79 6.4123 19.877 6.6973 33.984 0.335 16.61-3.1909 35.279-13.836 52.385-2.2535 3.6213-1.9113 8.1231 0.52149 11.33a218.75 218.75 0 0 1 25.869-19.807c5.7472-15.188 7.7198-30.498 7.4414-44.311-0.253-12.508-2.3597-24.096-5.3887-33.582h32.098c1.155 1.576 2.3454 3.2137 3.5684 4.9277 7.154 10.026 10.375 25.927 8.1602 42.008-0.41415 3.0066-1.007 5.9433-1.7715 8.7812a218.75 218.75 0 0 1 21.676-6.7246c2.184-16.769-0.15366-34.72-7.6738-48.992h34.928c3.424 7.168 6.5329 18.58 6.7109 31.992 0.04867 3.6484-0.1197 7.4014-0.54882 11.215a218.75 218.75 0 0 1 20.186-0.96094c0.29604-3.5807 0.40704-7.096 0.36133-10.52-0.156-11.72-2.1681-22.669-5.2051-31.727h34.189c3.185 7.376 6.0718 18.7 6.3438 31.906 0.0877 4.2536-0.09594 8.6502-0.61524 13.121a218.75 218.75 0 0 1 19.643 4.0957c0.80142-6.0562 1.0852-11.974 0.96875-17.629-0.241-11.673-2.1951-22.517-5.0371-31.494h10.959c2.135 3.749 4.4727 7.6983 7.0137 11.863 8.515 13.957 8.4326 27.053 5.1836 37.83-0.49604 1.6453-1.0588 3.2084-1.6641 4.6855a218.75 218.75 0 0 1 36.432 16.541c1.3356-3.1094 2.5234-6.3454 3.5293-9.6816 6.034-20.018 5.95-45.16-9.332-70.209-7.276-11.925-11.921-20.532-14.693-26.986-2.817-6.561-3.0532-9.4541-3.0312-10.328 2e-3 -0.083-0.18114-0.1945 0.75586-1.4375 1.494-1.982 4.0665-4.4387 9.4785-9.1777 4.818-4.218 7.3261-10.49 6.7441-16.867-2.91-31.857-12.295-123.13-26.518-189.69-1.824-8.535-8.9641-14.887-17.619-15.729l-0.41406-0.03515-62.051-4.7461 0.00195-153.92c0-10.45-8.0478-19.139-18.467-19.941l-506.74-39.006c-0.713-0.054874-1.427-0.072331-2.1387-0.050781zm7.4766 40.58 163.21 12.562 0.00195 162.85-72.209-3.8574c-0.848-0.045-1.6889 0.01859-2.5059 0.18359l-88.498 17.814v-189.55zm-20.002 5.5059 0.00195 846.17-124.85-51.145v-156.35l12.521 2.1484c5.811 0.997 11.766-0.61992 16.273-4.4199s7.1074-9.395 7.1074-15.291v-399.82c0-6.067-2.7533-11.807-7.4863-15.602-4.733-3.796-10.932-5.2389-16.854-3.9219l-7.9727 1.7715v-159.2l121.25-44.344zm203.21 8.5957 146.88 11.307 0.90625 158.96-147.79-7.8945-0.00195-162.38zm166.89 12.846 129.77 9.9902v153.93 0.14062l-60.541-2.9121-0.01368 0.23828-68.309-2.9805-0.90234-158.41zm-91.908 18.471c-24.186-0.1512-41.475 22.006-41.646 46.178-0.172 24.173 16.803 46.544 40.99 46.695 24.186 0.152 41.475-22.005 41.646-46.178 0.172-24.172-16.803-46.544-40.99-46.695zm164.01 14.205c-23.569-0.147-40.356 21.431-40.523 44.885-0.166 23.455 16.314 45.243 39.883 45.391 23.57 0.147 40.358-21.432 40.525-44.887 0.166-23.455-16.316-45.241-39.885-45.389zm-164.15 5.7949c10.409 0.065 21.247 10.496 21.133 26.57s-11.099 26.368-21.508 26.303c-10.408-0.065-21.245-10.496-21.131-26.57s11.098-26.368 21.506-26.303zm164 14.205c9.792 0.062 20.135 9.9077 20.027 25.264-0.109 15.356-10.592 25.073-20.383 25.012-9.791-0.062-20.133-9.9096-20.025-25.266 0.11-15.356 10.59-25.071 20.381-25.01zm-320.91 112.5 152.5 8.1484c0.135 0.856 0.30028 1.8898 0.48828 3.0938 0.61 3.924 1.4832 9.64 2.5312 16.793 2.096 14.31 4.8906 34.356 7.6856 57.281 5.604 45.955 11.156 103.08 11.156 148.78s-5.5522 102.83-11.156 148.78c-2.795 22.925-5.5896 42.969-7.6856 57.279-1.048 7.153-1.9212 12.872-2.5312 16.797-0.285 1.83-0.51283 3.2692-0.67383 4.2832l-151.85 8.1113c0.361-3.601 0.79629-7.9608 1.2793-12.969 1.483-15.359 3.4595-36.834 5.4355-61.301 3.946-48.861 7.916-109.93 7.916-158.09s-3.97-109.23-7.916-158.09c-1.976-24.468-3.9525-45.943-5.4355-61.303-0.71301-7.395-1.3142-13.374-1.7442-17.59zm-19.953 1.4844c2e-3 0.022 0.00776 0.04536 0.00977 0.06836 0.429 4.203 1.0423 10.32 1.7793 17.959 1.475 15.281 3.4402 36.649 5.4062 60.99 3.939 48.758 7.8535 109.17 7.8535 156.48 0 47.311-3.9145 107.72-7.8535 156.48-1.966 24.342-3.9312 45.712-5.4062 60.992-0.46 4.765-0.87465 8.9369-1.2226 12.422l-81.758-16.002v-433.05l81.191-16.344zm192.87 7.7539 67.068 3.584c0.032 1e-3 0.06371 0.0019 0.09571 0.0039l72.928 3.1816c0.429 2.742 0.95745 6.1229 1.5644 10.045 1.75 11.313 4.166 27.133 6.832 45.145 4.821 32.58 10.438 72.245 14.406 105.41l-143.76-2.0371c-2.173-31.531-5.5902-63.795-8.9902-91.68-2.819-23.118-5.638-43.326-7.752-57.758-0.966-6.594-1.7866-11.984-2.3926-15.898zm160.45 7.4922 103.09 4.9609 26.205 2.0039c10.224 52.89 17.606 117.55 21.248 153.89l-128.05-1.7852c-4.014-33.785-9.767-74.409-14.668-107.53-2.673-18.064-5.0985-33.925-6.8535-45.271-0.352-2.277-0.67766-4.3706-0.97266-6.2656zm-140.11 177.86 134.04 1.8984c-3.994 3.246-8.6158 7.8858-11.092 14.465-4.078 10.836-0.93181 20.083 4.2422 28.676 0.894 1.486 1.8805 3.0046 2.9375 4.5566h-129.1c0.054-3.415 0.08594-6.7837 0.08594-10.096 0-12.52-0.40647-25.832-1.1055-39.5zm162.24 1.1992 118.34 1.6524c-3.11 5.443-5.2845 11.841-5.4785 19.434-0.234 9.134 2.4147 18.173 6.2637 27.137 0.025 0.058 0.05117 0.11583 0.07617 0.17383h-126.58c-0.844-1.128-1.6547-2.211-2.4277-3.248-3.528-4.731-6.1881-8.419-8.1191-11.625-3.696-6.14-3.6492-8.6794-2.6582-11.314 1.273-3.382 3.928-5.1514 9.873-9.6484 2.517-1.903 5.9696-4.6337 8.5156-8.4277 0.869-1.295 1.6054-2.6738 2.1914-4.1328zm-161.8 68.396h26.479c3.756 7.566 7.179 19.719 7.373 34.004 0.21 15.443-3.365 32.708-13.709 48.676l-26.527 0.88477c2.837-27.309 5.2618-56.365 6.3848-83.564zm-294.83 207.06 84.191 16.48c1.909 1.541 4.3315 2.339 6.8125 2.207l72.209-3.8594v164.21l-163.21 13.119v-192.16zm258.19 52.133c-24.186-0.151-41.475 22.006-41.646 46.178-0.172 24.172 16.803 46.541 40.99 46.693 24.186 0.152 41.475-22.003 41.646-46.176 0.172-24.172-16.803-46.543-40.99-46.695zm-0.14062 19.998c10.409 0.065 21.247 10.496 21.133 26.57-0.114 16.075-11.099 26.37-21.508 26.305-10.408-0.065-21.245-10.496-21.131-26.57s11.098-26.37 21.506-26.305z"/>
  <path id="zwave" d="m837.5 617.37c-120.28 0-217.99 97.716-217.99 218h29.224c0.38119-104.37 84.788-188.75 188.78-188.75v-29.251zm0.0127 58c-88.137 0-160 71.849-160 160h29.256c0.38144-72.23 58.907-130.74 130.74-130.74zm6e-3 73c-23.082-0.0269-45.226 9.1293-61.548 25.449-16.322 16.32-25.482 38.463-25.458 61.544-0.0202 23.082 9.14 45.224 25.461 61.545s38.463 25.481 61.545 25.461c23.082 0.0236 45.224-9.1359 61.544-25.458 16.32-16.322 25.476-38.466 25.449-61.548 0.0303-23.081-9.1253-45.226-25.446-61.547-16.321-16.321-38.466-25.477-61.547-25.446zm-29.397 40h73.39l-39.112 61.662h39.112l-17.881 27.338h-74.119l40.212-62.41h-38.371l16.755-26.59z"/>
  <path id="zigbee" d="m772.14 601c-45.769-0.0711-89.548 18.726-121.04 51.972 98.609-12.304 160.15-8.198 186.67-4.781 52.704 8.198 49.979 47.866 49.979 47.866l-168.3 173.69c32.294 3.0936 96.881 5.1466 193.79-8.8729 17.559-27.08 26.889-58.68 26.858-90.965 0-93.341-75.151-168.91-167.96-168.91zm2.9616 61.012c-34.454-0.19695-81.137 2.0538-140.05 10.171-19.722 27.713-30.953 61.573-30.953 98.177 0 93.042 74.853 168.64 167.74 168.64 51.027 0 96.29-22.93 127.26-58.83-102.42 13.336-166.06 8.8766-193.28 5.4582-53.065-7.8778-50.001-47.886-50.001-47.886l168.08-173.42c-16.221-1.4962-32.502-2.2614-48.792-2.293z"/>
  <path id="wifi" d="m765.58 919.6c-9.519-1.1902-18.392-5.6413-25.273-12.678-7.5585-7.7299-11.598-16.883-12.155-27.54-1.0738-20.542 12.788-38.623 33.45-43.636 2.7606-0.6691 4.2269-0.80039 9.1664-0.81797 7.9104-0.0311 13.193 1.0969 19.164 4.0732 14.652 7.3038 23.5 20.745 24.127 36.65 0.62035 15.839-7.2399 30.098-21.201 38.442-7.7864 4.6538-17.85 6.6847-27.279 5.5058zm-44.453-95.374c-1.8888-0.9329-18.523-17.477-19.425-19.32-0.5949-1.2218-0.66903-1.9544-0.57351-5.6377 0.10693-3.4935 0.24377-4.4757 0.83918-5.6202 0.83928-1.6098 7.4284-8.0299 12.131-11.824 10.341-8.343 23.934-14.914 36.913-17.844 7.1618-1.6171 11.416-2.0515 20.096-2.0515 8.681 0 12.934 0.43424 20.096 2.0515 12.979 2.9303 26.562 9.4964 36.915 17.844 5.3112 4.2829 11.544 10.459 12.199 12.089 0.73303 1.8116 1.0517 8.7545 0.48849 10.498-0.54174 1.679-17.654 18.839-19.772 19.829-1.9195 0.89701-5.2433 0.9192-7.1725 0.053-0.8178-0.37086-2.2998-1.6471-3.6073-3.1124-3.0328-3.4009-7.7791-7.2658-12.094-9.8491-19.207-11.499-43.548-9.5933-60.844 4.7624-1.724 1.4317-4.1322 3.7206-5.3507 5.0867-1.3066 1.4653-2.7851 2.7414-3.6064 3.1124-1.9185 0.86636-5.4122 0.83677-7.2329-0.0633zm-49.791-49.92c-1.8046-0.91857-19.519-18.875-19.968-20.241-0.20208-0.62771-0.31957-2.9204-0.25574-5.2459 0.10732-3.365 0.24446-4.388 0.83088-5.5189 1.3901-2.6835 14.066-14.487 22.349-20.811 13.215-10.088 31.084-19.436 47.077-24.626 35.98-11.677 75.221-10.43 109.98 3.4947 12.9 5.1677 27.04 13.131 37.519 21.131 8.2835 6.3238 20.96 18.127 22.35 20.811 0.58599 1.1309 0.73509 2.1539 0.83088 5.5189 0.10731 2.3311 0 4.6178-0.25566 5.2486-0.47943 1.4764-18.559 19.676-20.24 20.381-1.566 0.65659-4.8852 0.63519-6.5726-0.0428-0.90547-0.36357-2.4939-1.776-4.8396-4.3034-12.339-13.295-30.229-24.673-48.692-30.967-13.427-4.5773-25.274-6.5123-39.872-6.5123-14.597 0-26.445 1.935-39.872 6.5123-18.462 6.2941-36.354 17.672-48.691 30.967-2.3459 2.5274-3.934 3.9398-4.8395 4.3034-1.8197 0.73037-5.3147 0.67904-6.8455-0.0962zm-50.513-51.042c-2-0.90504-18.896-17.922-19.429-19.567-0.23452-0.73124-0.35153-2.856-0.27692-5.3122 0.10726-3.332 0.24453-4.3488 0.83109-5.4646 1.0656-2.0269 11.964-12.461 20.087-19.221 33.41-27.807 73.437-45.624 116.13-51.69 13.075-1.8579 16.656-2.081 33.425-2.081 16.768 0 20.35 0.2236 33.425 2.081 42.689 6.066 82.716 23.883 116.13 51.69 8.1226 6.7606 19.026 17.194 20.087 19.221 0.58614 1.1158 0.73528 2.1326 0.83109 5.4646 0.10735 2.4562 0 4.5811-0.27717 5.3122-0.5646 1.7544-17.454 18.682-19.543 19.59-2 0.87007-5.2617 0.85099-7.2382-0.0424-0.95904-0.43134-3.5057-2.6293-7.0645-6.0902-15.132-14.715-30.045-25.381-48.47-34.664-22.793-11.485-45.368-17.816-72.363-20.296-10.078-0.92518-28.174-0.49915-39.799 0.9379-22.207 2.746-43.438 9.2102-63.577 19.357-18.424 9.283-33.338 19.949-48.47 34.664-3.5588 3.4608-6.1077 5.6587-7.0633 6.0901-1.9426 0.87643-5.4386 0.8849-7.3544 0.0211z"/>
  <path id="matter" d="m896.08 755.76c-34.805 9.4788-66.006 32.055-85.472 65.581-19.466 33.527-23.536 71.71-14.39 106.42l34.104-19.59c-2.7613-17.207-1.1069-34.828 4.8099-51.229l79.696 45.745 18.73-10.764v-21.498l-79.696-45.741c11.328-13.3 25.849-23.541 42.218-29.774zm-248.05 0v39.148c16.371 6.2311 30.894 16.472 42.222 29.773l-79.689 45.744v21.498l18.732 10.764 79.689-45.744c6.0509 16.741 7.5136 34.357 4.8233 51.228l34.094 19.589c9.146-34.712 5.0802-72.89-14.392-106.42-18.66-32.23-49.391-55.809-85.479-65.584zm124.03-143-18.659 10.816v92.04c-17.545-3.1829-33.545-10.781-46.849-21.601l-33.988 19.69c25.562 25.385 60.708 41.056 99.5 41.056s73.938-15.671 99.5-41.056l-33.975-19.69c-13.561 11.047-29.68 18.477-46.862 21.601v-92.04z"/>
  <path id="bluetooth" d="m 760.38905,600.87025 c -8.244,1.26828 -17.1183,2.53571 -25.9966,4.43817 -38.0491,8.24395 -61.5138,32.97789 -73.5629,69.12457 -7.6098,21.56117 -10.7812,43.75587 -12.0492,65.95121 0,3.80493 -0.6308,8.24471 -1.2651,12.04963 v 34.87284 c 0.6343,8.87813 1.2727,18.39453 2.5412,27.27265 3.1703,29.17095 9.5085,57.07466 25.996,81.80663 16.488,23.46358 39.3137,35.51563 67.216,39.95466 6.976,1.26829 13.3201,1.89553 19.6612,2.52964 h 18.3967 c 3.8046,0 6.9702,-0.63064 10.1411,-1.26482 27.9023,-2.53657 52.6297,-12.04511 71.6543,-34.2404 11.4143,-13.31722 18.3932,-29.81172 23.467,-46.93379 9.5119,-34.87833 10.7765,-70.39343 9.5085,-105.90594 -1.2686,-25.36603 -3.7948,-50.72975 -12.0382,-74.8275 -12.0491,-36.78084 -35.5138,-62.14543 -73.563,-70.38938 -8.8783,-1.90246 -17.7623,-3.16989 -26.6401,-4.43817 z m 0.6435,25.36412 c 29.1709,29.17096 57.7064,57.70797 86.8773,86.24475 l -57.075,57.07494 57.075,57.07489 -86.8773,86.87718 V 803.16208 c -15.2194,15.21962 -30.4377,30.43976 -45.6577,45.02527 l -18.3961,-18.38506 58.972,-58.98341 c -20.9269,-20.29288 -41.2125,-39.94587 -60.2371,-59.60459 l 19.0176,-19.02869 c 14.5858,14.5855 29.8133,29.81165 46.3013,46.93379 z m 25.9966,60.24824 v 50.09581 c 8.244,-8.24395 16.4863,-16.48774 25.364,-24.73168 -8.244,-8.24396 -17.12,-16.48601 -25.364,-25.36413 z m 0,116.04703 v 48.83105 c 8.244,-8.24401 16.488,-16.48952 24.732,-24.09931 z"/>
</svg>
