<?xml version="1.0" encoding="UTF-8"?>
<svg width="64px" height="64px" viewBox="0 0 64 64" version="1.1"
     xmlns="http://www.w3.org/2000/svg">
    <title>alarm_presence</title>
    <g id="alarm_presence" stroke="none" stroke-width="1" fill="none" fill-rule="evenodd">
        <path d="M32,19 C35.0375661,19 37.5,16.5375661 37.5,13.5 C37.5,10.4624339 35.0375661,8 32,8 C28.9624339,8 26.5,10.4624339 26.5,13.5 C26.5,16.5375661 28.9624339,19 32,19 Z M37.5,56 C37.5,57.1045695 36.6045695,58 35.5,58 C34.3779254,58 33.4513015,57.1234263 33.38906,56.0030793 L32.527735,40.4992302 C32.5121746,40.2191434 32.2805187,40 32,40 C31.7194813,40 31.4878254,40.2191434 31.472265,40.4992302 L30.61094,56.0030793 C30.5486985,57.1234263 29.6220746,58 28.5,58 C27.3954305,58 26.5,57.1045695 26.5,56 L26.4995269,31.245 L24.440285,39.4850713 C24.1723875,40.5566611 23.0865186,41.2081825 22.0149287,40.940285 C20.9433389,40.6723875 20.2918175,39.5865186 20.559715,38.5149287 L23.9916167,24.7873219 C24.5480755,22.5614869 26.547991,21 28.8423292,21 L35.1576708,21 C37.452009,21 39.4519245,22.5614869 40.0083833,24.7873219 L43.440285,38.5149287 C43.7081825,39.5865186 43.0566611,40.6723875 41.9850713,40.940285 C40.9134814,41.2081825 39.8276125,40.5566611 39.559715,39.4850713 L37.4995269,31.245 L37.5,56 Z" id="Shape" fill="#000000"/>
    </g>
</svg>
