<svg height="960" viewBox="0 0 960 960" width="960" xmlns="http://www.w3.org/2000/svg"><path d="m692.529248 508.342618c111.009235 0 201 89.990766 201 201 0 1.064205-.008271 2.126478-.024751 3.186758l.024751-3.186758c0 1.177818-.010131 2.35327-.03031 3.526273-.017352 1.0088-.042148 2.016175-.07433 3.021685-.00207.064688-.004171.129373-.006303.19405-.032718.992708-.072633 1.983569-.119696 2.972558-.006459.135737-.013051.271391-.019777.407009-.157982 3.185503-.390138 6.351653-.694771 9.496594-.010685.11031-.021471.220714-.032346.331091-.093767.951677-.194168 1.901374-.30116 2.849074-.015479.137108-.031055.273823-.046769.410496-.108622.944783-.223872 1.888172-.345635 2.829518-.013545.104717-.027121.209028-.040777.313313-.409105 3.124217-.889993 6.226055-1.440929 9.303606-.013364.074653-.026711.148968-.040099.223269-.178518.99074-.36432 1.979074-.557326 2.964828-.014241.072732-.028515.145418-.042827.218089-.183918.93383-.374322 1.865428-.571147 2.794655-.028022.132296-.056183.264584-.084474.396825-.195386.913279-.396935 1.824084-.60464 2.732543-.023187.101415-.046492.202981-.069874.304518-.464711 2.018001-.959744 4.024163-1.484646 6.018209-.019166.072814-.038442.145872-.057758.218913-.253031.95682-.512853 1.910531-.779494 2.861391-.013818.049278-.027866.099299-.041933.149312-.26111.928349-.528528 1.853328-.802386 2.775537-.035534.11966-.071192.239323-.106957.358939-.267544.894782-.541079 1.786709-.820628 2.675972-.027276.086766-.054555.173336-.081892.25988-.291684.923457-.589906 1.84418-.894565 2.761966-.025306.076234-.050663.152468-.076065.228682-.318379.955255-.643729 1.90731-.975995 2.856116-.02172.062024-.043257.123427-.064823.184816-.305223.868856-.616478 1.735613-.933496 2.599589-.051611.140657-.103254.280912-.155049.421094-.322601.873114-.651041 1.743239-.98532 2.610462-.036847.095596-.074062.191921-.111349.288211-.343998.888326-.693837 1.772882-1.049746 2.654336-.028203.06985-.056361.139473-.084557.209077-.765654 1.890097-1.559289 3.76604-2.380335 5.627175-.030201.06846-.060441.136902-.090717.205324-.387142.874906-.780316 1.746469-1.179496 2.614698-.032744.071219-.065612.142597-.09852.213952-.398205.863424-.802264 1.72336-1.212213 2.579941-.038323.080076-.076666.160057-.115061.24001-.416278.866845-.838689 1.730443-1.267082 2.590537-.026311.052826-.052545.105438-.078801.158037-1.362699 2.729893-2.785782 5.424595-4.26742 8.082191-.053638.096211-.107302.192281-.161043.288303-.454793.812613-.915202 1.621978-1.381043 2.427808-.042874.074165-.085927.148531-.129027.222866-.464522.801172-.934283 1.598615-1.409366 2.392507-.05457.09119-.109084.182122-.163668.273007-2.089085 3.47848-4.280652 6.888842-6.570352 10.22661-.036845.053711-.073889.107654-.110958.161579-.55289.804282-1.111235 1.603992-1.675219 2.399423-.027136.038271-.054536.076888-.08195.115494-1.753398 2.469263-3.560897 4.896872-5.421005 7.281436-.071057.091091-.142235.182176-.21349.273198-.561061.71671-1.1268 1.429413-1.69725 2.138164-.070219.087243-.140393.174281-.210637.26126-1.584416 1.961865-3.205087 3.893446-4.8609 5.793604-36.848662 42.286351-91.100764 69.01038-151.594598 69.01038-111.009235 0-201-89.990765-201-201 0-107.761785 84.802622-195.716856 191.313341-200.770687l-.313693.015127c1.035916-.050756 2.073892-.09367 3.113872-.128684.131234-.004418.262312-.008705.393422-.012865.987419-.031338 1.976845-.055557 2.968018-.072602.171985-.002958.344253-.005703.516574-.008232 1.001239-.014688 2.003992-.022057 3.008466-.022057zm-161 201c0 88.917845 72.082155 161 161 161 48.002581 0 91.098545-21.007728 120.595655-54.330949l-130.596007-106.669051-.001389-160.694394c-84.259145 5.164322-150.998259 75.13548-150.998259 160.694394zm-51.487581-606.342618c186.762077 0 342.506036 76.822755 345.982322 185.048391l.059344 3.701609.003471 221.103167c-28.328055-19.292493-61.044845-32.619113-96.342998-38.172487 21.374605-17.678131 33.422861-37.324701 33.422861-57.097347l.011885-15.17771c-63.006028 48.430132-167.082808 78.094377-283.136885 78.094377-116.044475 0-220.113633-29.659336-283.125-78.082355v15.165688c0 63.568225 124.530218 125.833334 283.125 125.833334 15.028943 0 29.751984-.559145 44.09214-1.625556-18.620152 18.700645-34.138614 40.492781-45.726922 64.535523l1.634782.006699c-116.044475 0-220.113633-29.659335-283.125-78.082354v15.165688c0 60.648042 113.351731 120.109943 261.492956 125.445053-2.263156 13.150891-3.440264 26.678431-3.440264 40.480898 0 7.553763.352557 15.025182 1.042114 22.398699-106.289569-3.790377-200.465218-32.601298-259.094806-77.657005v15.165688c0 62.339759 119.763594 123.426281 273.969213 125.764012 8.785815 22.713164 20.962248 43.738914 35.908718 62.455521-8.831916.352205-17.756436.530467-26.752931.530467-188.884374 0-346.041667-78.578647-346.041667-188.75v-377.5c0-108.933473 153.645509-186.980199 339.686972-188.720306zm242.487304 448.24005v139.12701l113.170912 92.437207c7.386423-14.181617 12.57922-29.456598 15.387248-45.388161l.232704-1.354378c.059161-.353441.117151-.707198.173968-1.061266l.285959-1.851302c.026554-.178849.05281-.357774.078767-.536776l.279648-2.018817c.019858-.150386.039506-.300823.058944-.451312l.282985-2.324156c.007731-.067592.015419-.135194.023066-.202806l.24868-2.353799c.007726-.078647.015394-.157306.023006-.235978.161152-1.663808.296654-3.334863.406446-5.012934.00397-.061692.007968-.123321.011932-.184956l.135328-2.376042c.004236-.085379.008405-.170772.012508-.256177l.099922-2.47111c.002023-.061611.004012-.123229.005967-.184853l.059455-2.457575c.000828-.049674.001634-.099351.002418-.149033l.020414-2.590218-.01963-2.539963c-.083458-5.396126-.43239-10.727831-1.034324-15.982596l-.294859-2.413027c-8.974841-69.112752-61.782009-124.459007-129.651464-137.166982zm-242.487304-385.323383c-158.594782 0-283.125 62.265109-283.125 125.833333s124.530218 125.833333 283.125 125.833333c158.594781 0 283.125-62.265109 283.125-125.833333s-124.530219-125.833333-283.125-125.833333z" fill-rule="evenodd"/></svg>
