<?xml version="1.0" encoding="UTF-8"?>
<svg width="960px" height="960px" version="1.1" viewBox="0 0 960 960" xmlns="http://www.w3.org/2000/svg">
 <path d="m364.4 77.752c-1.5166-0.0381-3.0357 0.010332-4.5469 0.14453l-36.539 3.2461-110.32-1.9824c-0.95569-0.017-1.9108-2.18e-4 -2.8652 0.050782l-105.7 5.6836c-5.9301 0.3188-11.716 1.9541-16.936 4.7871l-63.131 34.268c-12.891 6.997-20.918 20.487-20.918 35.154v628.89c0 10.084 3.8085 19.796 10.664 27.191l25.762 27.793c6.0268 6.5017 14.043 10.817 22.789 12.268l137.77 22.857c2.2412 0.3718 4.5094 0.55206 6.7812 0.53906l97.672-0.57422 51.707 4.3887c1.255 0.1063 2.514 0.15258 3.7734 0.14258l223.89-2.1894a218.75 218.75 0 0 1-18.25-39.822l-44.834 0.4375c0.1004-1.2976 0.15039-2.6298 0.15039-3.9941v-24.098c0-5.5229-4.4772-10-10-10-5.5228 0-10 4.4771-10 10v24.098c1e-5 1.5605-0.08203 2.9515-0.24804 4.1914l-15.08 0.14648c0.17448-1.679 0.26172-3.4172 0.26172-5.2129v-24.039c0-5.5229-4.4772-10-10-10-5.5228 0-10 4.4771-10 10v24.039c0 2.0959-0.14827 3.8841-0.45117 5.4102l-15.021 0.14648c0.27103-2.0522 0.40625-4.1992 0.40625-6.4336v-23.98c0-5.5228-4.4772-10-10-10s-10 4.4772-10 10v23.98c0 2.6862-0.24413 4.8658-0.74804 6.6328l-14.906 0.14649c0.39189-2.4176 0.58789-4.9737 0.58789-7.6562v-23.924c0-5.5228-4.4772-10-10-10-5.5228 0-10 4.4772-10 10v23.924c0 3.3496-0.38134 5.9044-1.1758 7.8555l-24.977 0.24414 3.4199-724.51 21.828 0.54883c0.60815 1.8446 0.90234 4.1705 0.90234 7.1074v23.924c0 5.5229 4.4772 10 10 10 5.5228 0 10-4.4771 10-10v-23.924c0-2.2931-0.14316-4.493-0.42968-6.5938l15.053 0.37696c0.29794 1.5124 0.44336 3.2835 0.44336 5.3555v23.98c0 5.5229 4.4772 10 10 10 5.5228 0 10-4.4771 10-10v-23.98c0-1.6646-0.07405-3.2812-0.22461-4.8457l15.113 0.38086c0.11911 1.0872 0.17774 2.284 0.17774 3.6035v24.041c0 5.5228 4.4772 10 10 10 5.5228 0 10-4.4772 10-10v-24.041c0-1.0527-0.02985-2.0865-0.08985-3.0996l15.115 0.38086c0.0285 0.5917 0.04101 1.2105 0.04101 1.8594v24.098c0 5.5228 4.4772 10 10 10 5.5228 0 10-4.4772 10-10v-24.098c0-0.456-0.00442-0.90872-0.01562-1.3574l130.63 3.2852c1.406 2.1691 2.084 5.3116 2.084 9.8555v24.354c0 5.5229 4.4772 10 10 10 5.5228 0 10-4.4771 10-10v-24.354c0-3.3046-0.28969-6.4189-0.86718-9.3223l14.74 0.37109c0.80182 2.0295 1.1934 4.6794 1.1934 8.1367v24.41c0 5.5229 4.4772 10 10 10 5.5228 0 10-4.4771 10-10v-24.41c0-2.6669-0.1875-5.2104-0.5625-7.6191l14.982 0.37696c0.43304 1.7534 0.64649 3.8725 0.64649 6.4297v24.469c0 5.5229 4.4772 10 10 10 5.5228 0 10-4.4771 10-10v-24.469c0-2.0473-0.11172-4.0211-0.33203-5.918l15.088 0.37696c0.2073 1.3812 0.31054 2.9491 0.31054 4.7285v24.527c0 5.5229 4.4771 10 10 10 5.5228 0 10-4.4771 10-10v-24.527c0-0.3446 2.4e-4 -0.68684-0.00976-1.0273l15.033 5.6172-3.9238 415.1a218.75 218.75 0 0 1 19.979 2.6406l0.61719-65.213c0.68019 3.6622 1.7229 7.1797 3.0879 10.492 0.0385 0.0941 0.07818 0.18725 0.11718 0.28125 0.0388 0.0921 0.07819 0.18339 0.11719 0.27539 0.0464 0.1086 0.09167 0.21767 0.13867 0.32617 0.0456 0.1047 0.09072 0.2081 0.13672 0.3125 0.1727 0.3909 0.35131 0.77887 0.53321 1.1641 0.03959 0.0832 0.07718 0.167 0.11718 0.25 0.0544 0.1136 0.11102 0.22674 0.16602 0.33984 0.0344 0.0711 0.06851 0.14189 0.10351 0.21289 0.0559 0.1131 0.11293 0.22499 0.16993 0.33789 0.0497 0.0988 0.10039 0.19788 0.15039 0.29688 1.4205 2.7759 3.0809 5.3795 4.9551 7.7676 0.1474 0.188 0.29522 0.3734 0.44532 0.5586 0.0617 0.0762 0.12354 0.15251 0.18554 0.22851 0.0701 0.0854 0.13994 0.17086 0.21094 0.25586 0.057 0.0685 0.11488 0.13608 0.17188 0.20508 0.0693 0.0823 0.13798 0.1641 0.20898 0.24609 0.0554 0.0648 0.11102 0.12836 0.16602 0.19336 7.3608 8.5125 17.537 13.842 28.992 13.873 23.199 0.0616 41.152-21.678 41.152-47.689 0-26.01-17.951-47.753-41.148-47.699-11.456 0.027-21.633 5.3534-28.994 13.865-0.0401 0.0465-0.08205 0.09363-0.12305 0.14063-0.0735 0.0857-0.14575 0.17081-0.21875 0.25781-0.0627 0.0741-0.1255 0.14866-0.1875 0.22266-0.2007 0.2405-0.3999 0.48371-0.5957 0.72851-0.2748 0.3434-0.54319 0.69223-0.80859 1.0449-0.011 0.015-0.02316 0.03093-0.03516 0.04493-0.1148 0.1525-0.2291 0.30438-0.3418 0.45898-0.0433 0.0592-0.0849 0.11874-0.1289 0.17774-0.7574 1.0434-1.4762 2.1243-2.1524 3.2383-0.0336 0.0555-0.06756 0.11101-0.10156 0.16601-0.5808 0.9643-1.1304 1.9542-1.6484 2.9668-0.032 0.0623-0.06565 0.12355-0.09765 0.18555-0.0689 0.136-0.13708 0.27285-0.20508 0.41015-0.028 0.057-0.05599 0.11488-0.08399 0.17188-0.2722 0.5549-0.53401 1.1165-0.78711 1.6836-0.0385 0.087-0.07723 0.17177-0.11523 0.25977-0.06 0.1368-0.12069 0.27531-0.17969 0.41211-0.06786 0.15832-0.13495 0.31734-0.20117 0.47656-7e-3 0.017-0.01148 0.03478-0.02148 0.05078-1.2675 3.0487-2.2616 6.2712-2.9512 9.623l1.8457-195.23c0.0604 0.1734 0.12254 0.34548 0.18554 0.51758 0.1553 0.4311 0.31477 0.86026 0.48047 1.2852 0.0478 0.1214 0.09653 0.24248 0.14453 0.36328 0.0357 0.0884 0.06947 0.17662 0.10547 0.26562 0.0371 0.0905 0.07433 0.17953 0.11133 0.26953 0.0399 0.0968 0.0801 0.19402 0.1211 0.29102 0.05089 0.1211 0.10229 0.24103 0.15429 0.36133 0.0562 0.1311 0.11292 0.26228 0.16992 0.39258 0.031 0.0706 0.06275 0.14189 0.09375 0.21289 0.1838 0.4134 0.37181 0.82231 0.56641 1.2285 5e-3 0.01 0.01563 0.02221 0.01563 0.0332 1.6006 3.3456 3.5472 6.4525 5.7949 9.25 0.0838 0.1044 0.16795 0.20891 0.25195 0.3125 0.0872 0.1067 0.17467 0.21236 0.26367 0.31836 0.0533 0.0639 0.10616 0.12841 0.16016 0.19141 0.0645 0.0765 0.12836 0.15252 0.19336 0.22852 0.0918 0.1075 0.18434 0.21451 0.27734 0.32031 0.0347 0.0407 0.07047 0.08009 0.10547 0.12109 0.0957 0.1091 0.19206 0.21887 0.28906 0.32617 0.033 0.037 0.06466 0.07333 0.09766 0.11133 7.3566 8.1704 17.41 13.185 28.695 13.047 23.13-0.2834 41.004-22.192 41.004-48.152 0-26.061-18.035-47.634-41.299-47.232-11.622 0.2008-21.917 5.8424-29.277 14.695-0.0417 0.0494-0.08205 0.09944-0.12305 0.14844-0.0831 0.1007-0.16605 0.20239-0.24805 0.30469-0.2913 0.3592-0.57827 0.7232-0.85937 1.0918-0.1401 0.1839-0.28027 0.36868-0.41797 0.55468-0.2328 0.3149-0.462 0.63328-0.6875 0.95508-0.027 0.0388-0.05403 0.07819-0.08203 0.11719-0.5026 0.7206-0.98578 1.4565-1.4512 2.209-0.018 0.028-0.03574 0.05699-0.05274 0.08399-0.0994 0.1612-0.19792 0.32373-0.29492 0.48633-0.0332 0.0556-0.06661 0.11001-0.09961 0.16601-0.0621 0.1044-0.12455 0.20956-0.18555 0.31446-0.0501 0.08539-0.09944 0.17085-0.14844 0.25585-0.08239 0.1428-0.16509 0.28599-0.24609 0.42969-0.029 0.0521-0.05889 0.10425-0.08789 0.15625-0.3071 0.5492-0.60508 1.1056-0.89258 1.668-0.0549 0.1075-0.11006 0.21562-0.16406 0.32422-0.0584 0.1164-0.11583 0.23331-0.17383 0.34961-0.0388 0.0789-0.07723 0.15928-0.11523 0.23828-0.0354 0.0726-0.07047 0.1448-0.10547 0.2168-0.0634 0.1321-0.1255 0.26483-0.1875 0.39843-0.02 0.0431-0.0415 0.08591-0.0625 0.12891-0.4023 0.8628-0.78072 1.7423-1.1367 2.6348-0.02 0.0502-0.0415 0.10039-0.0625 0.15039-0.1631 0.4111-0.32131 0.82518-0.47461 1.2422l0.92188-97.379 75.371 5.752 27.311 30.863v430.49a218.75 218.75 0 0 1 40 46.949v-477.44c0-9.7653-3.5738-19.194-10.045-26.508l-27.309-30.863c-6.8909-7.7878-16.544-12.586-26.912-13.377l-87.732-6.6973-20.846-7.7891c-4.1623-1.5554-8.5541-2.4078-12.996-2.5195l-406.67-10.223zm-11.012 41.115-3.4121 722.66-28.812-3.0976 2.8125-716.25 29.412-3.3164zm-128.84 0.50586 79.477 1.4297c-0.0295 0.4306-0.04487 0.86359-0.04687 1.3008l-2.8106 715.99-84.189 0.4961c-0.00996-1.9727-0.60235-3.9638-1.8242-5.6992l-23.75-33.732v-639.65l33.145-40.129zm-26.385 0.53906-21.93 26.547-114.37 2.6484 44.719-24.271 91.584-4.9238zm-26.762 46.664v624.65l-126.92-13.182c-0.34704-0.036-0.69173-0.05429-1.0332-0.05469l-0.001953-608.46 127.96-2.9629zm672.39 62.557h0.0039c7.7926 3.7987 13.506 13.681 13.506 25.49 0 11.909-5.8227 22.115-13.771 26.188-7.6607-3.7556-13.308-13.325-13.533-24.777-0.01-0.2367-0.00976-0.47253-0.00976-0.71093 0-0.3967 0.00653-0.7916 0.01953-1.1836 0.3724-11.36 6.0764-21.035 13.785-25.006zm-598.27 157.31c-13.596 0.0831-24.557 10.113-28.961 23.771-1.5474 4.1883-2.3945 8.7343-2.3945 13.471 0 4.8923 0.90344 9.5766 2.5488 13.869 4.5109 13.419 15.412 23.174 28.887 23.148 0.55923-1e-3 1.1145-0.01873 1.6641-0.05273 0.69959 0.043 1.4046 0.0635 2.1152 0.0625 19.606-0.0369 35.178-16.859 35.178-37.219 0-20.388-15.616-37.138-35.254-37.025-0.53834 3e-3 -1.074 0.01887-1.6055 0.04687-0.71787-0.053-1.444-0.07226-2.1777-0.07226zm-137.4 9.1016c-0.87459 0.00745-1.7527 0.06556-2.541 0.07031-2.1022 0.012-6.7882 0.04099-14.059 0.08398v53.324c9.4453 0.4359 15.441 0.65649 17.986 0.64649 3.6737-0.0075 3.8182-3.0474 3.8242-7.7754v-42.227c0-3.7107-2.5872-4.1454-5.2109-4.123zm139.18 11.104c4.8874 1.2337 9.3906 7.9057 9.3906 16.84 0 9.0558-4.638 15.862-9.623 17.035-5.1441-0.8697-9.533-4.6742-11.613-9.9473-0.6239-2.0826-0.98242-4.4122-0.98242-6.918 0-2.4207 0.33534-4.6816 0.92188-6.7188 2.063-5.3998 6.5147-9.3347 11.734-10.262l0.17188-0.0293zm596.36 46.959h0.00391c7.8714 3.9364 13.639 13.983 13.639 25.842 0 11.858-5.767 21.899-13.637 25.832-7.753-3.8989-13.461-13.657-13.668-25.193-0.01-0.2151-0.00976-0.42999-0.00976-0.64649 0-0.3272 0.00367-0.65316 0.01367-0.97656 0.3078-11.392 5.9805-20.999 13.658-24.857zm-598.36 47.367c-17.815-0.0454-31.135 17.003-31.135 37.018 0 19.984 13.272 37.096 31.043 37.215 0.67223 5e-3 1.3377-0.0156 1.9961-0.0586 0.69246 0.046 1.3904 0.07618 2.0938 0.07618 19.64 0.1232 35.26-16.622 35.26-37.012 0-20.358-15.568-37.182-35.172-37.23-0.73084-2e-3 -1.457 0.0185-2.1758 0.0625-0.6308-0.045-1.2672-0.07031-1.9102-0.07031zm-137.96 3.4609-0.36328 0.00977c-0.48282 0.014-0.95392 0.0302-1.3965 0.0293h-0.1582-0.34376c-0.06048-1e-4 -0.1239 1e-4 -0.1875 0l-0.39843-0.00196c-2.4402-5e-3 -6.7642-0.01339-12.971-0.02539v53.324c9.4453 0.5106 15.441 0.77406 17.986 0.78906 3.6737 0.0215 3.8182-3.0181 3.8242-7.7461v-42.225c0-4.0793-3.1272-4.2253-5.9922-4.1543zm139.58 16.76c4.9274 1.2819 9.4688 8.0383 9.4688 16.992 0 8.908-4.4847 15.562-9.3613 16.809-7.1659-1.3373-12.857-8.3437-12.857-17.002 0-8.5482 5.5458-15.41 12.582-16.768l0.16797-0.03125zm5.4102 208.32c-4.0928-0.0738-7.4102 3.9129-7.4102 8.9043 0 4.9913 3.3173 9.1026 7.4102 9.1816 4.0928 0.0791 7.4102-3.9077 7.4102-8.9043 0-4.9966-3.3173-9.1076-7.4102-9.1816zm-198.57 69.602 122.08 12.68 17.285 24.549-123.92-20.561-15.449-16.668z"/>
 <path id="wifi" d="m765.58 919.6c-9.519-1.1902-18.392-5.6413-25.273-12.678-7.5585-7.7299-11.598-16.883-12.155-27.54-1.0738-20.542 12.788-38.623 33.45-43.636 2.7606-0.6691 4.2269-0.80039 9.1664-0.81797 7.9104-0.0311 13.193 1.0969 19.164 4.0732 14.652 7.3038 23.5 20.745 24.127 36.65 0.62035 15.839-7.2399 30.098-21.201 38.442-7.7864 4.6538-17.85 6.6847-27.279 5.5058zm-44.453-95.374c-1.8888-0.9329-18.523-17.477-19.425-19.32-0.5949-1.2218-0.66903-1.9544-0.57351-5.6377 0.10693-3.4935 0.24377-4.4757 0.83918-5.6202 0.83928-1.6098 7.4284-8.0299 12.131-11.824 10.341-8.343 23.934-14.914 36.913-17.844 7.1618-1.6171 11.416-2.0515 20.096-2.0515 8.681 0 12.934 0.43424 20.096 2.0515 12.979 2.9303 26.562 9.4964 36.915 17.844 5.3112 4.2829 11.544 10.459 12.199 12.089 0.73303 1.8116 1.0517 8.7545 0.48849 10.498-0.54174 1.679-17.654 18.839-19.772 19.829-1.9195 0.89701-5.2433 0.9192-7.1725 0.053-0.8178-0.37086-2.2998-1.6471-3.6073-3.1124-3.0328-3.4009-7.7791-7.2658-12.094-9.8491-19.207-11.499-43.548-9.5933-60.844 4.7624-1.724 1.4317-4.1322 3.7206-5.3507 5.0867-1.3066 1.4653-2.7851 2.7414-3.6064 3.1124-1.9185 0.86636-5.4122 0.83677-7.2329-0.0633zm-49.791-49.92c-1.8046-0.91857-19.519-18.875-19.968-20.241-0.20208-0.62771-0.31957-2.9204-0.25574-5.2459 0.10732-3.365 0.24446-4.388 0.83088-5.5189 1.3901-2.6835 14.066-14.487 22.349-20.811 13.215-10.088 31.084-19.436 47.077-24.626 35.98-11.677 75.221-10.43 109.98 3.4947 12.9 5.1677 27.04 13.131 37.519 21.131 8.2835 6.3238 20.96 18.127 22.35 20.811 0.58599 1.1309 0.73509 2.1539 0.83088 5.5189 0.10731 2.3311 0 4.6178-0.25566 5.2486-0.47943 1.4764-18.559 19.676-20.24 20.381-1.566 0.65659-4.8852 0.63519-6.5726-0.0428-0.90547-0.36357-2.4939-1.776-4.8396-4.3034-12.339-13.295-30.229-24.673-48.692-30.967-13.427-4.5773-25.274-6.5123-39.872-6.5123-14.597 0-26.445 1.935-39.872 6.5123-18.462 6.2941-36.354 17.672-48.691 30.967-2.3459 2.5274-3.934 3.9398-4.8395 4.3034-1.8197 0.73037-5.3147 0.67904-6.8455-0.0962zm-50.513-51.042c-2-0.90504-18.896-17.922-19.429-19.567-0.23452-0.73124-0.35153-2.856-0.27692-5.3122 0.10726-3.332 0.24453-4.3488 0.83109-5.4646 1.0656-2.0269 11.964-12.461 20.087-19.221 33.41-27.807 73.437-45.624 116.13-51.69 13.075-1.8579 16.656-2.081 33.425-2.081 16.768 0 20.35 0.2236 33.425 2.081 42.689 6.066 82.716 23.883 116.13 51.69 8.1226 6.7606 19.026 17.194 20.087 19.221 0.58614 1.1158 0.73528 2.1326 0.83109 5.4646 0.10735 2.4562 0 4.5811-0.27717 5.3122-0.5646 1.7544-17.454 18.682-19.543 19.59-2 0.87007-5.2617 0.85099-7.2382-0.0424-0.95904-0.43134-3.5057-2.6293-7.0645-6.0902-15.132-14.715-30.045-25.381-48.47-34.664-22.793-11.485-45.368-17.816-72.363-20.296-10.078-0.92518-28.174-0.49915-39.799 0.9379-22.207 2.746-43.438 9.2102-63.577 19.357-18.424 9.283-33.338 19.949-48.47 34.664-3.5588 3.4608-6.1077 5.6587-7.0633 6.0901-1.9426 0.87643-5.4386 0.8849-7.3544 0.0211z"/>
</svg>
