<?xml version="1.0" encoding="UTF-8"?>
<svg width="960px" height="960px" version="1.1" viewBox="0 0 960 960" xmlns="http://www.w3.org/2000/svg">
  <path id="wifi" d="m765.58 919.6c-9.519-1.1902-18.392-5.6413-25.273-12.678-7.5585-7.7299-11.598-16.883-12.155-27.54-1.0738-20.542 12.788-38.623 33.45-43.636 2.7606-0.6691 4.2269-0.80039 9.1664-0.81797 7.9104-0.0311 13.193 1.0969 19.164 4.0732 14.652 7.3038 23.5 20.745 24.127 36.65 0.62035 15.839-7.2399 30.098-21.201 38.442-7.7864 4.6538-17.85 6.6847-27.279 5.5058zm-44.453-95.374c-1.8888-0.9329-18.523-17.477-19.425-19.32-0.5949-1.2218-0.66903-1.9544-0.57351-5.6377 0.10693-3.4935 0.24377-4.4757 0.83918-5.6202 0.83928-1.6098 7.4284-8.0299 12.131-11.824 10.341-8.343 23.934-14.914 36.913-17.844 7.1618-1.6171 11.416-2.0515 20.096-2.0515 8.681 0 12.934 0.43424 20.096 2.0515 12.979 2.9303 26.562 9.4964 36.915 17.844 5.3112 4.2829 11.544 10.459 12.199 12.089 0.73303 1.8116 1.0517 8.7545 0.48849 10.498-0.54174 1.679-17.654 18.839-19.772 19.829-1.9195 0.89701-5.2433 0.9192-7.1725 0.053-0.8178-0.37086-2.2998-1.6471-3.6073-3.1124-3.0328-3.4009-7.7791-7.2658-12.094-9.8491-19.207-11.499-43.548-9.5933-60.844 4.7624-1.724 1.4317-4.1322 3.7206-5.3507 5.0867-1.3066 1.4653-2.7851 2.7414-3.6064 3.1124-1.9185 0.86636-5.4122 0.83677-7.2329-0.0633zm-49.791-49.92c-1.8046-0.91857-19.519-18.875-19.968-20.241-0.20208-0.62771-0.31957-2.9204-0.25574-5.2459 0.10732-3.365 0.24446-4.388 0.83088-5.5189 1.3901-2.6835 14.066-14.487 22.349-20.811 13.215-10.088 31.084-19.436 47.077-24.626 35.98-11.677 75.221-10.43 109.98 3.4947 12.9 5.1677 27.04 13.131 37.519 21.131 8.2835 6.3238 20.96 18.127 22.35 20.811 0.58599 1.1309 0.73509 2.1539 0.83088 5.5189 0.10731 2.3311 0 4.6178-0.25566 5.2486-0.47943 1.4764-18.559 19.676-20.24 20.381-1.566 0.65659-4.8852 0.63519-6.5726-0.0428-0.90547-0.36357-2.4939-1.776-4.8396-4.3034-12.339-13.295-30.229-24.673-48.692-30.967-13.427-4.5773-25.274-6.5123-39.872-6.5123-14.597 0-26.445 1.935-39.872 6.5123-18.462 6.2941-36.354 17.672-48.691 30.967-2.3459 2.5274-3.934 3.9398-4.8395 4.3034-1.8197 0.73037-5.3147 0.67904-6.8455-0.0962zm-50.513-51.042c-2-0.90504-18.896-17.922-19.429-19.567-0.23452-0.73124-0.35153-2.856-0.27692-5.3122 0.10726-3.332 0.24453-4.3488 0.83109-5.4646 1.0656-2.0269 11.964-12.461 20.087-19.221 33.41-27.807 73.437-45.624 116.13-51.69 13.075-1.8579 16.656-2.081 33.425-2.081 16.768 0 20.35 0.2236 33.425 2.081 42.689 6.066 82.716 23.883 116.13 51.69 8.1226 6.7606 19.026 17.194 20.087 19.221 0.58614 1.1158 0.73528 2.1326 0.83109 5.4646 0.10735 2.4562 0 4.5811-0.27717 5.3122-0.5646 1.7544-17.454 18.682-19.543 19.59-2 0.87007-5.2617 0.85099-7.2382-0.0424-0.95904-0.43134-3.5057-2.6293-7.0645-6.0902-15.132-14.715-30.045-25.381-48.47-34.664-22.793-11.485-45.368-17.816-72.363-20.296-10.078-0.92518-28.174-0.49915-39.799 0.9379-22.207 2.746-43.438 9.2102-63.577 19.357-18.424 9.283-33.338 19.949-48.47 34.664-3.5588 3.4608-6.1077 5.6587-7.0633 6.0901-1.9426 0.87643-5.4386 0.8849-7.3544 0.0211z"/>
  <path d="m480 4c-151.07 0.0021277-274 122.77-274 273.71 0 48.099 12.468 93.452 34.348 132.78 1.0275 1.8467 7.1586 13.944 10.961 21.299a10 10 0 0 0 3.4941 6.791c13.119 25.566 30.072 59.177 35.156 72.312 21.972 56.76 34.348 106.6 41.318 169.57l-0.0293-0.28125c1.3799 14.31 2.6148 24.084 5.1211 32.479 2.4366 8.1614 6.15 14.286 10.244 20.486 2.0471 3.1001 4.1054 5.9451 6.6055 8.7324 1.2501 1.3936 2.554 2.7769 4.6602 4.4062 0.97687 0.75573 2.095 1.7947 3.791 2.7285 0.33254 4.7572 0.76467 11.27 1.0918 18.387 0.50016 10.881 0.87154 21.243 1.4922 27.938 0.61304 10.625 1.2921 21.626 1.541 31.66 6.1e-4 0.0247 9.1e-4 0.04952 0.00195 0.07422 0.21461 7.5296 0.22041 20.145-0.00977 37.346 0.67502 11.485 5.9111 14.398 11.645 20.268l31.238 33.533c0.38955 0.41763 0.79683 0.8184 1.2207 1.2012l6.1992 5.6035 18.264 16.514c0.85717 0.75298 1.7772 1.4312 2.75 2.0274 2.8429 2.342 7.377 5.7309 13.523 7.9219 7.4675 2.6619 16.111 3.9486 28.656 4.4922 0.28828 0.0128 0.57667 0.01933 0.86523 0.01953h0.35156c0.2846 2.1e-4 0.56917-0.00598 0.85352-0.01758 12.704-0.54222 21.407-1.8227 28.918-4.4746 6.112-2.158 10.626-5.5007 13.502-7.8535 1.0181-0.61819 1.979-1.3261 2.8711-2.1152l24.461-22.115c0.40128-0.36308 0.78768-0.7423 1.1582-1.1367l33.023-35.117a218.75 218.75 0 0 1-29.021-78.836c-0.38359 7.1906-0.8076 14.388-1.043 21.51-7.3e-4 0.0299-9.1e-4 0.05994-0.00195 0.08984-0.13525 4.7334-0.12113 12.025-0.07422 19.916-24.044 3.9125-49.102 5.9023-75.209 5.9023-24.651 0-49.349-1.7656-74.092-5.2539 0.0102-1.6273 0.02369-3.3536 0.02929-4.8984 26.465 2.2907 59.764 3.4004 100.12 3.4004a10 10 0 0 0 10-10 10 10 0 0 0-10-10c-41.041 0-74.569-1.2022-100.4-3.5195-0.0861-2.5028-0.18616-4.999-0.30273-7.502 26.61 2.7115 60.086 4.0215 100.71 4.0215a10 10 0 0 0 10-10 10 10 0 0 0-10-10c-41.823 0-75.82-1.4595-101.77-4.2598-0.0132-0.22835-0.02587-0.47754-0.03907-0.70507-0.0163-0.27973-0.0384-0.55909-0.0664-0.83789-0.0836-0.83545-0.2284-3.6639-0.35157-5.791 26.802 2.4185 60.776 3.5938 102.23 3.5938a10 10 0 0 0 10-10 10 10 0 0 0-10-10c-42.563 0-77.053-1.2919-103.25-3.7812-0.0104-0.22632-0.02095-0.42662-0.03125-0.65234-0.23295-5.0677-0.39797-9.5862-0.61523-13.902 43.225 0.46749 110.05 0.44181 152.55-0.0332a218.75 218.75 0 0 1 6.8867-40.223c-44.488 0.61631-148.68 0.64741-181.39-0.08593-0.0676-0.10078-0.09261-0.11444-0.16016-0.2168-2.5351-3.8392-5.2665-9.7897-5.2949-9.8848-0.67046-2.2457-2.3537-11.59-3.6348-24.875a20.002 20.002 0 0 0-0.02929-0.28125c-7.2923-65.886-20.758-120.16-43.771-179.61-4.8627-12.562-14.773-33.097-24.67-52.842 57.368 3.4672 117.62 6.3837 175.41 6.3887 59.219 5e-3 120.47-3.2532 177.31-6.6172-9.6766 18.326-19.463 37.913-24.244 50.135-20.539 52.501-33.619 100.8-41.57 156.31a218.75 218.75 0 0 1 50.857-53.764c7.0206-29.277 16.085-57.613 27.961-87.971 5.76-14.724 41.3-80.819 44.953-86.727 25.815-41.75 40.727-91.053 40.727-143.65 0-150.94-122.92-273.71-274-273.71h-0.00195-0.00195zm0.0039 40c129.48 0 234 104.41 234 233.71 0 45.056-12.706 86.964-34.748 122.61-2.5565 4.1346-7.3368 12.595-12.719 22.35-60.228 3.6053-125.73 7.3294-188.53 7.3242-61.061-5e-3 -125.23-3.3162-185.94-7.084-7.4895-14.516-14.202-27.273-16.762-31.873-18.675-33.566-29.303-72.127-29.303-113.33 0-129.3 104.52-233.71 234-233.71zm37.596 851.79-16.287 14.727 1.1172-0.66406c-1.1178 0.66257-2.1683 1.4325-3.1367 2.2988-2.2214 1.9869-0.70679 1.0596-2.3359 1.6348-1.5831 0.55895-6.6806 1.6886-16.627 2.166-9.7432-0.4767-14.728-1.5978-16.268-2.1465-1.5857-0.56525-0.12726 0.33303-2.3496-1.6543-0.96841-0.86634-2.019-1.6363-3.1367-2.2988l1.1191 0.66406-16.043-14.506c10.661 1.3095 22.686 1.9844 36.16 1.9844 14.237 0 26.813-0.7433 37.787-2.2051z" color="#000000" fill-rule="evenodd" stroke-linecap="round" stroke-linejoin="round" style="-inkscape-stroke:none"/>
</svg>
